<?xml version="1.0" encoding="utf-8"?>
<!-- Generator: Adobe Illustrator 19.0.0, SVG Export Plug-In . SVG Version: 6.00 Build 0)  -->
<svg version="1.1" id="Layer_1" xmlns="http://www.w3.org/2000/svg" xmlns:xlink="http://www.w3.org/1999/xlink" x="0px" y="0px"
	 viewBox="0 0 1550 1050" style="enable-background:new 0 0 1550 1050;" xml:space="preserve">
<style type="text/css">
	.st0{font-family:'Poppins-SemiBold';}
	.st1{font-size:101.1825px;}
	.st2{letter-spacing:30;}
	.st3{fill:#29ABE2;}
</style>
<text id="XMLID_1_" transform="matrix(1 0 0 1 550.9737 580.331)" class="st0 st1 st2">ZEGMATIC</text>
<path id="XMLID_3_" d="M406.7,500.5c8.9-1.3,32.4-0.9,37,0.5c-0.1,2.6-1.7,4.6-2.9,6.7c-12.2,21.4-24.5,42.8-36.7,64.3
	c-1.1,1.9-2.1,3.9-3.2,6.1c2.6,1.7,4.9,1.2,7.1,1.2c18.8,0.1,37.7,0,56.5,0.1c2.4,0,5-0.5,7.2,0.9c-1.3,4.8-13.2,25.9-17.9,31.6
	c-36,0-72.5,0-109.7,0c0.7-2.2,0.8-3.2,1.3-4C365.8,571.8,386.3,535.9,406.7,500.5z"/>
<path id="XMLID_2_" class="st3" d="M457.3,541.4c3-5.3,5.6-10,8.3-14.7c2.6-4.5,5.2-9.1,7.8-13.6c2.7-4.7,5.4-9.4,8.1-14.2
	c2.6-4.5,5.3-9,7.8-13.6c2.6-4.7,5.7-9.2,7.7-14.3c-2.6-2.1-5.2-1.5-7.5-1.5c-17.6-0.1-35.1,0-52.7,0c-2.3,0-4.6,0-6.9-0.1
	c-1-0.1-1.9-0.6-2.8-0.9c1.1-4.8,11.6-23.6,16.1-29.1c4.7-1,91.3-1.6,104-0.7c1.2,0.1,2.3,0.5,3.8,0.9c-0.4,1.3-0.4,2.4-0.9,3.2
	c-18.8,33-37.7,66-56.3,98.6C487.9,542.8,463.8,542.9,457.3,541.4z"/>
</svg>
